PathFileType	4	(X/Y/Z)	D:\Research_projects\MuscleProsody\BulkSports2Dtrack\RetrackedSports2D\p1_sample60_cam1\p1_sample60_cam1_Sports2D\p1_sample60_cam1_Sports2D_px_person00.trc
DataRate	CameraRate	NumFrames	NumMarkers	Units	OrigDataRate	OrigDataStartFrame	OrigNumFrames
60	60	7	22	m	60	292	780
Frame#	Time	Hip			RHip			RKnee			RAnkle			RBigToe			RSmallToe			RHeel			LHip			LKnee			LAnkle			LBigToe			LSmallToe			LHeel			Neck			Head			Nose			RShoulder			RElbow			RWrist			LShoulder			LElbow			LWrist		
		X1	Y1	Z1	X2	Y2	Z2	X3	Y3	Z3	X4	Y4	Z4	X5	Y5	Z5	X6	Y6	Z6	X7	Y7	Z7	X8	Y8	Z8	X9	Y9	Z9	X10	Y10	Z10	X11	Y11	Z11	X12	Y12	Z12	X13	Y13	Z13	X14	Y14	Z14	X15	Y15	Z15	X16	Y16	Z16	X17	Y17	Z17	X18	Y18	Z18	X19	Y19	Z19	X20	Y20	Z20	X21	Y21	Z21	X22	Y22	Z22
292	4.866666666666666	312.98752606221524	540.3903411559387	0.0	287.4863412885985	542.6463339405682	0.0	283.16283357802956	682.1091124698987	0.0	271.0971495665161	804.4290254123504	0.0	313.8472417695897	846.0777846177629	0.0	291.03839772708073	850.4633088505838	0.0	260.0402544600768	815.2557042295748	0.0	342.4710648107462	540.8712815790403	0.0	332.4531632417571	677.4049883439313	0.0	313.4980634632341	787.178319929864	0.0	349.77818548598447	826.6787127646667	0.0	352.1829344740647	815.6860312692841	0.0	300.3507627307699	800.7661361161935	0.0	339.79741252637143	325.92537864459246	0.0	392.8357058252623	232.94014120605968	0.0	381.7706331076976	294.2673030504105	0.0	277.8430283576157	349.5665485444096	0.0	192.62249146730446	390.0898098710199	0.0	92.72699416209736	397.6880363717281	0.0	369.97682929138057	361.6568136765582	0.0	387.29870659165385	406.7978510169738	0.0	443.99477101299925	431.56739117032515	0.0
293	4.883333333333333	312.8454549618112	540.5491998356841	0.0	287.27031422486203	543.0276005916205	0.0	283.0831693088437	682.4302848303454	0.0	271.0781786271457	804.78851447787	0.0	313.8246924074488	845.9692466369078	0.0	291.2150225514067	850.2578674822151	0.0	260.58205681712	815.214512410509	0.0	342.2452574852641	541.3053961081457	0.0	332.50981442093627	677.6546990566175	0.0	313.4676741333034	787.4840399790617	0.0	349.9069402866569	826.6763265988344	0.0	352.2081601267438	815.6744629888717	0.0	300.26620656065506	800.734806385424	0.0	339.1707584379957	325.8726270706187	0.0	391.5135097871072	233.0672251314521	0.0	380.7791142121049	294.3166489687856	0.0	277.55869676496144	348.37719419663296	0.0	191.96425433901072	383.7197798394172	0.0	94.81792825264023	378.32711273384257	0.0	370.15220079509265	361.61119232297716	0.0	393.58368809633873	402.06912667819813	0.0	453.9071391713498	419.6827010572243	0.0
294	4.9	312.65941845026833	540.7180750450935	0.0	286.9571672385004	543.2770864887683	0.0	282.9122567633331	682.6022605016547	0.0	271.0612880740429	805.1286044370423	0.0	313.8096989307963	845.8424072710517	0.0	291.42494077018216	850.060188304808	0.0	261.18338538320944	815.1659106308624	0.0	341.95973928915197	541.6451871047608	0.0	332.5346188815957	677.7331203256135	0.0	313.41446912124405	787.6950242617198	0.0	349.9072967694956	826.6686832312706	0.0	352.19046747030586	815.6013678365126	0.0	300.21634172219063	800.6051546959872	0.0	338.43208518172844	325.8709695634213	0.0	389.845035300841	233.1342627252896	0.0	379.56340983278255	294.349243893341	0.0	277.1664405793649	347.18124450459	0.0	192.22442366457227	377.6691902958046	0.0	100.98450594004531	359.4738377227661	0.0	370.3654276438577	361.5955448424167	0.0	400.1570912426119	397.6791683186613	0.0	464.0075093320947	408.04115222185186	0.0
295	4.916666666666667	312.4461318643041	540.8994682370472	0.0	286.5766194140318	543.4176556419202	0.0	282.6765666575921	682.653652829981	0.0	271.0491710745947	805.4328652249488	0.0	313.78384634753684	845.7000278532672	0.0	291.6500546451905	849.8634951024347	0.0	261.8260889030133	815.1062649741127	0.0	341.6287135492114	541.8981416220528	0.0	332.52581087065204	677.6644749618723	0.0	313.35300798263427	787.8103798169045	0.0	349.78066869018056	826.6355996295431	0.0	352.13122285809783	815.4594568432425	0.0	300.21323470053466	800.3878174278574	0.0	337.59589275922764	325.92393080131507	0.0	387.8939055266376	233.13727662483498	0.0	378.17659277574825	294.35970123300666	0.0	276.69292172409996	346.00554435946714	0.0	193.43095444808878	372.00062266323675	0.0	111.14275071458923	341.47815330804264	0.0	370.5966508999004	361.5669424942517	0.0	406.82978628090143	393.63817582082646	0.0	473.9889493902799	396.743069690701	0.0
296	4.933333333333334	312.22007278756587	541.0908904711989	0.0	286.1587645119037	543.467358781903	0.0	282.40567437663873	682.6107729461181	0.0	271.0431473702665	805.6820640786281	0.0	313.7321766850946	845.5489776990457	0.0	291.8668139996994	849.6684507228839	0.0	262.48469719198437	815.0324017001902	0.0	341.2714710483014	542.0705799400155	0.0	332.4850210211997	677.473157046344	0.0	313.2950299008729	787.8352465895816	0.0	349.54018505846904	826.5681293581222	0.0	352.0327610338493	815.2488510859808	0.0	300.26029137244103	800.0976459556252	0.0	336.67956871373895	326.0273350146607	0.0	385.7266061367814	233.07549388831626	0.0	376.6746611628264	294.34644117286336	0.0	276.16490785473576	344.88430218629077	0.0	195.61299844944332	366.8099356679591	0.0	125.07046496082512	324.74352614879393	0.0	370.8153994526855	361.49362806085475	0.0	413.40387396863593	389.9861076111062	0.0	483.5570000251361	385.93772638897167	0.0
297	4.95	311.9906989132374	541.2855314048287	0.0	285.7304395609214	543.4380142903619	0.0	282.1271607774892	682.4952053968776	0.0	271.04147449940933	805.8625538571549	0.0	313.64742579344914	845.4004788364757	0.0	292.05104839014433	849.4839938933403	0.0	263.1285195692644	814.9464764062199	0.0	340.90929033532916	542.1683525481841	0.0	332.41734203610474	677.184898362594	0.0	313.24833461830815	787.7806312711436	0.0	349.2151548034709	826.4701082429132	0.0	351.8966682831066	814.9828017967866	0.0	300.354474159171	799.7568861412901	0.0	335.7037921173098	326.1705287450515	0.0	383.4065863488793	232.9503607303527	0.0	375.1081677772934	294.3084708304667	0.0	275.6057530684234	343.858288348762	0.0	198.80631225946988	362.2276353131667	0.0	142.42336166350015	309.7341127267737	0.0	370.9832940410312	361.36048512469273	0.0	419.67341070513066	386.7954834575029	0.0	492.43428014795654	375.82647544191263	0.0
298	4.966666666666667	311.7623572654144	541.4721480944849	0.0	285.31443849083877	543.3372200867807	0.0	281.86431734505237	682.3237023354443	0.0	271.03840468025686	805.9729576201556	0.0	313.5298556918187	845.2714730445012	0.0	292.18531356563057	849.3260284280365	0.0	263.72593180523256	814.857209893815	0.0	340.563643265417	542.1992292741385	0.0	332.32954461945894	676.8241730900753	0.0	313.21895937458106	787.6610485937917	0.0	348.84815961782255	826.3538540990553	0.0	351.725895345212	814.6839453145046	0.0	300.4897445848644	799.3913007808649	0.0	334.6900321280139	326.34123078834125	0.0	380.98629354348606	232.76505251623027	0.0	373.5138649172217	294.24402481078863	0.0	275.03091615209934	342.9705694242624	0.0	203.0485500350195	358.4071103660537	0.0	162.7548536712379	296.9500986325289	0.0	371.05723129475416	361.1751550571097	0.0	425.4389751733046	384.16036610497054	0.0	500.3741697897846	366.64728260776775	0.0
